<!DOCTYPE svg PUBLIC "-//W3C//DTD SVG 1.1//EN" "http://www.w3.org/Graphics/SVG/1.1/DTD/svg11.dtd">
<!-- Uploaded to: SVG Repo, www.svgrepo.com, Transformed by: SVG Repo Mixer Tools -->
<svg fill="#000000" width="800px" height="800px" viewBox="0 0 24 24" id="fish-left" data-name="Flat Line" xmlns="http://www.w3.org/2000/svg" class="icon flat-line">
<g id="SVGRepo_bgCarrier" stroke-width="0"/>
<g id="SVGRepo_tracerCarrier" stroke-linecap="round" stroke-linejoin="round"/>
<g id="SVGRepo_iconCarrier">
<path id="secondary" d="M9.5,7a9.93,9.93,0,0,1,6.4,2.74,4.83,4.83,0,0,1,1.33-1.19,3.65,3.65,0,0,1,3.77,0A4.14,4.14,0,0,1,18.92,12,4.14,4.14,0,0,1,21,15.49a3.65,3.65,0,0,1-3.77,0,4.83,4.83,0,0,1-1.33-1.19A9.93,9.93,0,0,1,9.5,17C4.5,17,3,12,3,12S4.5,7,9.5,7Z" style="fill: #6DA5A9; stroke-width: 2;"/>
<path id="primary" d="M9.5,7a9.93,9.93,0,0,1,6.4,2.74,4.83,4.83,0,0,1,1.33-1.19,3.65,3.65,0,0,1,3.77,0A4.14,4.14,0,0,1,18.92,12,4.14,4.14,0,0,1,21,15.49a3.65,3.65,0,0,1-3.77,0,4.83,4.83,0,0,1-1.33-1.19A9.93,9.93,0,0,1,9.5,17C4.5,17,3,12,3,12S4.5,7,9.5,7Z" style="fill: none; stroke: #262625; stroke-linecap: round; stroke-linejoin: round; stroke-width: 2;"/>
</g>
</svg>